# xmcd
#
# Track frame offsets:
#	150
#	12865
#	27574
#	43163
#	70204
#	83760
#	106191
#	120408
#	141746
#	161861
#	180724
#	195339
#	214578
#
# Disc length: 3082 seconds
# Revision: 1
# Processed by: cddbd v1.5.2PL0 Copyright (c) Steve Scherf et al.
# Submitted via: dBpowerAMP V12.0
#
DISCID=b40c080d
DTITLE=Phantom Blues Band - Inside Out
DYEAR=2011
DGENRE=Blues
TTITLE0=I Can't Stand It
TTITLE1=A Good Time With The Blues
TTITLE2=Boogah Man
TTITLE3=So Far From Heaven
TTITLE4=Little Fernandez
TTITLE5=Death Letter
TTITLE6=Where Did My Monkey Go?
TTITLE7=Change
TTITLE8=It's All Right
TTITLE9=Goin' Home
TTITLE10=Boogie-Woogie Country Girl
TTITLE11=Shame, Shame
TTITLE12=Stone Survivor
EXTD=
EXTT0=
EXTT1=
EXTT2=
EXTT3=
EXTT4=
EXTT5=
EXTT6=
EXTT7=
EXTT8=
EXTT9=
EXTT10=
EXTT11=
EXTT12=
PLAYORDER=
